<?xml version="1.0" standalone="no"?>
<!DOCTYPE svg PUBLIC "-//W3C//DTD SVG 20010904//EN"
 "http://www.w3.org/TR/2001/REC-SVG-20010904/DTD/svg10.dtd">
<svg version="1.0" xmlns="http://www.w3.org/2000/svg"
 width="700.000000pt" height="700.000000pt" viewBox="0 0 700.000000 700.000000"
 preserveAspectRatio="xMidYMid meet">
<metadata>
Created by potrace 1.14, written by Peter Selinger 2001-2017
</metadata>
<g transform="translate(0.000000,700.000000) scale(0.100000,-0.100000)"
fill="#000000" stroke="none">
<path d="M2724 6981 c-226 -55 -372 -154 -570 -386 -148 -174 -259 -253 -409
-290 -250 -62 -320 -174 -279 -447 22 -153 41 -212 119 -373 61 -127 143 -246
237 -344 108 -113 185 -163 332 -216 79 -29 146 -111 177 -218 7 -24 4 -30
-15 -38 -24 -11 -60 -97 -71 -169 -3 -19 -8 -42 -10 -50 -2 -8 -7 -40 -10 -70
-3 -30 -7 -66 -10 -80 -4 -25 -11 -108 -21 -274 -5 -96 4 -138 43 -197 l24
-36 -31 -53 c-81 -137 -183 -378 -182 -430 0 -3 -4 -13 -10 -23 -9 -18 -34
-138 -44 -212 -3 -22 -8 -51 -11 -65 -2 -14 -6 -101 -8 -195 -5 -265 26 -477
108 -725 22 -69 40 -129 39 -135 -1 -5 -11 -75 -22 -155 -12 -80 -23 -156 -25
-170 -2 -14 -6 -46 -9 -71 -4 -25 -9 -57 -11 -70 -4 -23 -18 -122 -30 -219
-10 -75 -13 -83 -33 -125 -11 -22 -32 -77 -47 -122 -19 -58 -35 -87 -53 -99
-86 -56 -240 -217 -279 -291 -41 -76 -50 -147 -23 -190 55 -91 222 -144 450
-144 240 0 414 109 566 354 l51 82 54 7 c30 3 82 9 117 13 35 3 72 8 83 10 11
2 58 7 105 11 l85 7 -5 -26 c-2 -14 -8 -61 -12 -104 -27 -295 36 -489 191
-588 88 -57 142 -67 327 -62 161 3 176 5 247 28 93 30 176 103 213 186 26 60
32 182 13 257 -22 83 -12 161 18 151 36 -13 89 -17 252 -19 199 -4 327 5 425
29 58 14 71 14 120 1 70 -18 247 -14 350 8 131 28 396 117 526 177 85 38 172
99 224 156 89 98 124 193 124 338 -1 188 -81 380 -214 515 -56 57 -83 75 -160
110 -57 25 -185 2 -247 -46 -56 -43 -72 -90 -76 -240 -3 -103 -8 -138 -25
-176 -12 -27 -25 -48 -30 -48 -5 0 -6 21 -3 48 8 70 6 455 -3 542 -16 157 -24
209 -48 325 -61 302 -158 569 -306 840 -43 78 -151 255 -162 265 -3 3 -21 28
-39 55 -126 181 -391 464 -568 604 l-92 72 25 36 c38 57 32 118 -21 184 -21
26 -116 104 -135 111 -7 2 -120 278 -120 295 0 0 29 15 65 31 135 64 227 193
251 352 5 35 6 231 0 255 -2 11 -7 40 -10 65 -34 254 -224 739 -382 975 -182
273 -368 413 -559 420 -54 2 -80 8 -116 29 -72 41 -136 57 -244 61 -71 2 -121
-2 -171 -14z"/>
</g>
</svg>
