<?xml version="1.0" encoding="UTF-8" standalone="no"?>
<!DOCTYPE svg PUBLIC "-//W3C//DTD SVG 1.1//EN" "http://www.w3.org/Graphics/SVG/1.1/DTD/svg11.dtd">
<svg width="100%" height="100%" viewBox="0 0 888 483" version="1.1" xmlns="http://www.w3.org/2000/svg" xmlns:xlink="http://www.w3.org/1999/xlink" xml:space="preserve" xmlns:serif="http://www.serif.com/" style="fill-rule:evenodd;clip-rule:evenodd;stroke-linejoin:round;stroke-miterlimit:2;">
    <path d="M1,421.535L888,421.535L888,419.535L1,419.535C0.448,419.535 0,419.983 0,420.535C0,421.087 0.448,421.535 1,421.535Z" style="fill:rgb(229,231,235);fill-rule:nonzero;"/>
    <path d="M406,438.535C411,462.535 439.5,433.035 439.5,433.035L473.5,429.035C473.5,429.035 495,429.535 509,440.535C523,451.535 532.5,437.035 532.5,437.035C548.273,442.292 567.597,442.271 584.333,440.587C608.449,438.161 627.779,419.547 631.093,395.537C649.79,260.095 547,193.535 547,193.535L517,112.535C517,112.535 526.5,89.035 529.5,68.035C532.5,47.035 510.5,27.035 483.5,7.035C471.687,-1.715 458.152,-1.086 446.663,2.39C433.774,6.289 422.531,14.308 414.223,24.906C407.341,33.686 395.536,46.121 382.56,48.275C378.07,49.015 373.64,50.795 369.5,54.035C365.22,57.385 363.33,62.975 363.27,69.925C362.95,100.285 388.02,136.835 410,142.535C437,149.535 422.5,216.035 422.5,216.035C378.5,278.035 409.5,347.035 409.5,347.035L401.5,403.035C401.5,403.035 401,414.535 406,438.535Z" style="fill:rgb(229,231,235);fill-rule:nonzero;"/>
    <path d="M553,309.535L542,446.535C542,446.535 557,484.535 506,482.535C455,480.535 485,402.535 485,402.535L501,300.535" style="fill:rgb(229,231,235);fill-rule:nonzero;"/>
    <path d="M509.795,483.611C508.548,483.611 507.271,483.586 505.961,483.534C494.671,483.091 486.357,478.933 481.25,471.175C466.647,448.994 482.889,405.269 484.028,402.276L500.012,300.38C500.098,299.834 500.605,299.466 501.155,299.547C501.7,299.632 502.073,300.144 501.988,300.69L485.988,402.69C485.977,402.759 485.959,402.828 485.934,402.894C485.759,403.346 468.682,448.45 482.922,470.078C487.654,477.264 495.432,481.12 506.039,481.536C522.691,482.185 533.892,478.632 539.337,470.967C546.461,460.939 541.124,447.041 541.069,446.901C541.014,446.759 540.991,446.606 541.003,446.455L552.003,309.455C552.047,308.905 552.52,308.504 553.08,308.538C553.631,308.583 554.041,309.064 553.997,309.615L543.015,446.39C543.741,448.351 548.297,461.795 540.976,472.114C535.559,479.75 525.077,483.611 509.795,483.611Z" style="fill:rgb(229,231,235);fill-rule:nonzero;"/>
    <path d="M462,337.535C462,337.535 465,464.535 402,461.535C339,458.535 396,418.535 396,418.535L401.5,403.035" style="fill:rgb(229,231,235);fill-rule:nonzero;"/>
    <path d="M404.162,462.587C403.431,462.587 402.695,462.569 401.952,462.534C383.964,461.677 373.8,457.647 371.744,450.555C368.04,437.776 392.184,420.034 395.163,417.902L400.558,402.701C400.742,402.179 401.313,401.908 401.834,402.092C402.354,402.277 402.627,402.848 402.442,403.369L396.942,418.869C396.873,419.065 396.744,419.234 396.574,419.353C396.311,419.539 370.197,438.038 373.666,449.999C375.458,456.179 385.007,459.724 402.048,460.536C413.396,461.082 423.345,457.265 431.599,449.207C462.551,418.991 461.02,338.369 461,337.558C460.987,337.006 461.424,336.548 461.977,336.535C462.499,336.536 462.986,336.96 463,337.511C463.079,340.857 464.572,419.809 432.997,450.636C424.869,458.572 415.177,462.587 404.162,462.587Z" style="fill:rgb(229,231,235);fill-rule:nonzero;"/>
    <path d="M363.27,69.925C370.45,70.785 381.69,70.745 391,64.535C400.97,57.885 390.62,51.685 382.56,48.275C378.07,49.015 373.64,50.795 369.5,54.035C365.22,57.385 363.33,62.975 363.27,69.925Z" style="fill:rgb(229,231,235);fill-rule:nonzero;"/>
    <path d="M479.298,51.944C479.298,51.944 461.849,7.128 486.841,6.5C511.833,5.873 531.573,44.71 531.573,44.71C531.573,44.71 594.301,159.053 508.36,152.887C422.418,146.721 463.486,101.076 463.486,101.076C463.486,101.076 483.088,76.977 479.298,51.944Z" style="fill:rgb(229,231,235);fill-rule:nonzero;"/>
    <path d="M575.039,386.851C586.106,391.774 597.67,396.799 609.774,396.318C621.878,395.837 634.616,388.042 636.502,376.077C637.476,369.9 635.545,363.273 637.91,357.484C641.092,349.695 651.356,346.692 659.335,349.361C667.315,352.03 673.176,358.913 677.379,366.201C685.242,379.838 688.393,397.736 679.962,411.029C672.653,422.553 658.791,427.76 645.897,432.227C628.722,438.176 609.546,444.08 592.903,436.773C576.165,429.423 567.047,408.188 573.245,390.991" style="fill:rgb(229,231,235);fill-rule:nonzero;"/>
    <path d="M538.114,170.921C538.114,170.921 560.114,181.921 549.114,193.921C538.114,205.921 470.114,239.921 445.114,234.921C420.114,229.921 414.114,214.921 414.114,210.921C414.114,206.921 416,158.535 424,160.535C432,162.535 482.114,207.921 538.114,170.921Z" style="fill:rgb(52,126,182);fill-rule:nonzero;"/>
</svg>
